<?xml version="1.0" standalone="no"?>
<!DOCTYPE svg PUBLIC "-//W3C//DTD SVG 20010904//EN"
 "http://www.w3.org/TR/2001/REC-SVG-20010904/DTD/svg10.dtd">
<svg version="1.0" xmlns="http://www.w3.org/2000/svg"
 width="260.000000pt" height="260.000000pt" viewBox="0 0 260.000000 260.000000"
 preserveAspectRatio="xMidYMid meet">
<metadata>
Created by potrace 1.14, written by Peter Selinger 2001-2017
</metadata>
<g transform="translate(0.000000,260.000000) scale(0.100000,-0.100000)"
fill="#000000" stroke="none">
<path d="M1280 2590 c-8 -5 -11 -10 -6 -10 5 0 4 -6 -2 -12 -5 -7 -32 -56 -59
-108 -26 -52 -50 -97 -53 -100 -7 -7 -133 -250 -218 -420 -37 -74 -70 -136
-74 -138 -5 -2 -8 -9 -8 -15 0 -7 -58 -127 -129 -267 -178 -354 -194 -384
-204 -391 -4 -3 -9 -12 -11 -20 -1 -8 -37 -84 -79 -170 -42 -86 -77 -161 -77
-166 0 -6 -3 -13 -7 -15 -5 -2 -39 -64 -77 -138 -38 -74 -72 -142 -77 -150 -5
-8 -35 -72 -68 -141 -33 -70 -67 -134 -76 -142 -29 -29 -45 -80 -31 -99 10
-13 32 -16 133 -16 66 1 124 -1 129 -4 5 -3 18 -4 29 -2 10 1 25 -2 31 -7 7
-6 15 -6 18 -1 3 5 26 8 51 7 25 0 45 3 45 8 0 4 4 6 9 2 5 -3 13 0 16 6 4 5
13 8 21 5 8 -3 13 -2 12 2 -2 4 6 17 17 30 11 12 21 27 21 32 1 6 2 15 3 21 0
5 6 7 13 3 7 -5 8 -3 3 6 -4 7 -4 15 1 19 14 9 48 64 35 57 -6 -4 -11 -2 -11
3 0 6 5 11 10 11 6 0 10 7 10 16 0 8 5 12 11 9 6 -4 9 0 7 11 -2 13 2 18 12
16 8 -2 12 0 8 4 -4 4 -2 14 5 22 10 13 9 15 -3 8 -8 -4 -6 0 4 8 11 9 16 16
12 16 -4 0 0 7 8 16 9 8 14 20 11 25 -4 5 -1 9 6 9 7 0 9 8 6 21 -3 12 -3 18
0 15 9 -9 43 40 43 63 0 12 5 21 10 21 6 0 10 5 10 11 0 5 -5 7 -12 3 -7 -4
-8 -3 -4 5 4 6 11 9 16 6 4 -3 14 3 21 12 12 14 12 16 0 8 -11 -6 -12 -5 -5 6
4 8 9 21 11 29 1 8 6 16 12 18 5 2 7 10 4 19 -4 11 -2 14 5 9 7 -4 12 -3 12 3
0 12 178 9 198 -3 6 -4 12 -4 12 1 0 4 11 8 25 8 14 0 25 -4 25 -8 0 -5 6 -5
13 0 18 11 37 12 37 2 0 -6 6 -7 17 0 10 5 26 5 40 0 13 -5 25 -4 28 2 4 5 11
6 17 3 17 -11 68 -12 74 -3 3 5 11 6 17 2 7 -4 27 -8 44 -8 18 -1 36 -5 40 -8
4 -4 7 -133 8 -286 0 -258 2 -281 19 -300 10 -11 22 -18 27 -16 4 3 11 0 15
-6 4 -8 9 -7 15 2 5 8 9 9 9 3 0 -6 10 -10 23 -9 12 1 28 -3 36 -9 10 -7 13
-8 8 0 -4 7 5 11 23 11 17 0 27 -5 23 -10 -4 -6 -1 -7 8 -2 17 11 50 12 66 2
6 -4 15 -2 18 3 5 7 12 5 21 -7 13 -17 14 -17 7 2 -6 18 -5 19 12 5 11 -9 16
-10 11 -2 -9 15 -1 15 26 1 16 -8 19 -8 13 1 -6 9 2 11 28 8 20 -2 33 0 31 4
-5 7 10 12 28 9 11 -1 19 51 19 134 0 65 -10 2248 -11 2363 l0 32 -302 0
c-179 0 -309 -4 -318 -10z m144 -843 c6 -29 7 -405 2 -522 -2 -44 -5 -50 -24
-49 -12 0 -22 -4 -22 -9 0 -5 -7 -4 -15 3 -12 10 -15 10 -15 0 0 -9 -3 -10
-13 -1 -8 6 -16 8 -19 5 -3 -3 -24 -5 -47 -6 -23 0 -41 -5 -42 -12 0 -6 -4 -2
-9 9 -5 11 -9 15 -9 9 -1 -6 -11 -10 -23 -9 -13 1 -26 -3 -30 -9 -5 -7 -8 -6
-8 4 0 13 -1 13 -10 0 -8 -12 -10 -12 -10 -1 0 9 -4 10 -12 3 -9 -7 -16 -6
-24 2 -13 14 9 81 24 72 5 -3 9 0 9 7 1 22 8 41 21 55 6 7 12 19 12 27 0 7 7
16 16 19 9 3 14 12 11 20 -3 7 5 29 18 49 13 19 21 37 18 41 -3 3 1 14 9 23
18 20 141 264 153 301 9 30 30 14 39 -31z"/>
<path d="M2097 2593 c-8 -13 -2 -1697 5 -1709 4 -6 4 -14 0 -18 -11 -12 -10
-90 2 -105 8 -11 8 -13 -1 -7 -8 4 -13 1 -13 -9 0 -10 5 -13 13 -9 9 6 9 4 1
-7 -12 -16 -12 -48 -1 -66 4 -6 4 -14 0 -16 -5 -3 -8 -46 -8 -96 0 -55 -4 -91
-10 -91 -5 0 -3 -5 5 -10 12 -8 13 -11 1 -19 -11 -7 -11 -9 0 -14 12 -5 12 -6
0 -6 -11 -1 -11 -4 0 -18 10 -12 11 -17 2 -20 -8 -3 -9 -13 -3 -34 8 -26 7
-30 -7 -25 -13 5 -14 4 -3 -9 7 -8 9 -15 6 -15 -4 0 -2 -9 4 -20 6 -11 7 -20
3 -20 -4 0 -8 -35 -7 -78 1 -101 11 -116 84 -120 30 -2 61 -9 69 -15 11 -9 13
-9 8 0 -8 13 70 13 90 0 6 -4 14 -3 18 3 9 15 38 13 29 -3 -6 -9 -4 -9 7 1 7
6 28 12 46 12 46 0 90 24 95 52 3 19 3 1624 -1 2306 l-1 192 -214 0 c-118 0
-217 -3 -219 -7z"/>
</g>
</svg>
